<mxfile host="app.diagrams.net" agent="Mozilla/5.0 (X11; Linux x86_64) AppleWebKit/537.36 (KHTML, like Gecko) Chrome/131.0.0.0 Safari/537.36" version="26.1.0">
  <diagram name="Page-1" id="NK1C2wnd1GhE9tNOOxt9">
    <mxGraphModel dx="943" dy="543" grid="0" gridSize="10" guides="1" tooltips="1" connect="1" arrows="1" fold="1" page="0" pageScale="1" pageWidth="850" pageHeight="1100" math="0" shadow="0">
      <root>
        <mxCell id="0" />
        <mxCell id="1" parent="0" />
        <mxCell id="4VORlH8GiMeX1_bS_ced-121" value="" style="whiteSpace=wrap;html=1;aspect=fixed;fillColor=none;fontFamily=Helvetica;" parent="1" vertex="1">
          <mxGeometry x="480" y="680" width="40" height="40" as="geometry" />
        </mxCell>
        <mxCell id="4VORlH8GiMeX1_bS_ced-135" value="" style="whiteSpace=wrap;html=1;aspect=fixed;fillColor=none;fontFamily=Helvetica;" parent="1" vertex="1">
          <mxGeometry x="480" y="760" width="40" height="40" as="geometry" />
        </mxCell>
        <mxCell id="4VORlH8GiMeX1_bS_ced-130" value="" style="whiteSpace=wrap;html=1;aspect=fixed;fillColor=none;fontFamily=Helvetica;" parent="1" vertex="1">
          <mxGeometry x="320" y="760" width="40" height="40" as="geometry" />
        </mxCell>
        <mxCell id="4VORlH8GiMeX1_bS_ced-126" value="" style="whiteSpace=wrap;html=1;aspect=fixed;fillColor=none;fontFamily=Helvetica;" parent="1" vertex="1">
          <mxGeometry x="280" y="760" width="40" height="40" as="geometry" />
        </mxCell>
        <mxCell id="4VORlH8GiMeX1_bS_ced-2" value="" style="whiteSpace=wrap;html=1;aspect=fixed;fillColor=none;fontFamily=Helvetica;" parent="1" vertex="1">
          <mxGeometry x="280" y="280" width="40" height="40" as="geometry" />
        </mxCell>
        <mxCell id="4VORlH8GiMeX1_bS_ced-3" value="" style="whiteSpace=wrap;html=1;aspect=fixed;fillColor=none;fontFamily=Helvetica;" parent="1" vertex="1">
          <mxGeometry x="320" y="280" width="40" height="40" as="geometry" />
        </mxCell>
        <mxCell id="4VORlH8GiMeX1_bS_ced-4" value="" style="whiteSpace=wrap;html=1;aspect=fixed;fillColor=none;fontFamily=Helvetica;" parent="1" vertex="1">
          <mxGeometry x="360" y="280" width="40" height="40" as="geometry" />
        </mxCell>
        <mxCell id="4VORlH8GiMeX1_bS_ced-9" value="&lt;b&gt;&lt;font style=&quot;font-size: 16px;&quot;&gt;A&lt;/font&gt;&lt;/b&gt;" style="whiteSpace=wrap;html=1;aspect=fixed;fillColor=none;fontFamily=Helvetica;" parent="1" vertex="1">
          <mxGeometry x="240" y="280" width="40" height="40" as="geometry" />
        </mxCell>
        <mxCell id="4VORlH8GiMeX1_bS_ced-28" value="" style="endArrow=blockThin;html=1;rounded=0;endFill=0;startArrow=oval;startFill=0;fontFamily=Helvetica;dashed=1;dashPattern=1 1;" parent="1" edge="1">
          <mxGeometry width="50" height="50" relative="1" as="geometry">
            <mxPoint x="300" y="700" as="sourcePoint" />
            <mxPoint x="500" y="700" as="targetPoint" />
            <Array as="points">
              <mxPoint x="300" y="660" />
              <mxPoint x="500" y="660" />
            </Array>
          </mxGeometry>
        </mxCell>
        <mxCell id="4VORlH8GiMeX1_bS_ced-71" value="&lt;b&gt;&lt;font style=&quot;font-size: 16px;&quot;&gt;B&lt;/font&gt;&lt;/b&gt;" style="whiteSpace=wrap;html=1;aspect=fixed;fillColor=none;fontFamily=Helvetica;" parent="1" vertex="1">
          <mxGeometry x="280" y="360" width="40" height="40" as="geometry" />
        </mxCell>
        <mxCell id="4VORlH8GiMeX1_bS_ced-72" value="" style="whiteSpace=wrap;html=1;aspect=fixed;fillColor=none;fontFamily=Helvetica;" parent="1" vertex="1">
          <mxGeometry x="320" y="360" width="40" height="40" as="geometry" />
        </mxCell>
        <mxCell id="4VORlH8GiMeX1_bS_ced-73" value="" style="whiteSpace=wrap;html=1;aspect=fixed;fillColor=none;fontFamily=Helvetica;" parent="1" vertex="1">
          <mxGeometry x="360" y="360" width="40" height="40" as="geometry" />
        </mxCell>
        <mxCell id="4VORlH8GiMeX1_bS_ced-74" value="&lt;b&gt;&lt;font style=&quot;font-size: 16px;&quot;&gt;A&lt;/font&gt;&lt;/b&gt;" style="whiteSpace=wrap;html=1;aspect=fixed;fillColor=none;fontFamily=Helvetica;" parent="1" vertex="1">
          <mxGeometry x="240" y="360" width="40" height="40" as="geometry" />
        </mxCell>
        <mxCell id="4VORlH8GiMeX1_bS_ced-78" value="&lt;b&gt;&lt;font style=&quot;font-size: 16px;&quot;&gt;B&lt;/font&gt;&lt;/b&gt;" style="whiteSpace=wrap;html=1;aspect=fixed;fillColor=none;fontFamily=Helvetica;" parent="1" vertex="1">
          <mxGeometry x="280" y="440" width="40" height="40" as="geometry" />
        </mxCell>
        <mxCell id="4VORlH8GiMeX1_bS_ced-80" value="" style="whiteSpace=wrap;html=1;aspect=fixed;fillColor=none;fontFamily=Helvetica;" parent="1" vertex="1">
          <mxGeometry x="360" y="440" width="40" height="40" as="geometry" />
        </mxCell>
        <mxCell id="4VORlH8GiMeX1_bS_ced-81" value="&lt;b&gt;&lt;font style=&quot;font-size: 16px;&quot;&gt;A&lt;/font&gt;&lt;/b&gt;" style="whiteSpace=wrap;html=1;aspect=fixed;fillColor=none;fontFamily=Helvetica;" parent="1" vertex="1">
          <mxGeometry x="240" y="440" width="40" height="40" as="geometry" />
        </mxCell>
        <mxCell id="4VORlH8GiMeX1_bS_ced-85" value="&lt;b&gt;&lt;font style=&quot;font-size: 16px;&quot;&gt;C&lt;/font&gt;&lt;/b&gt;" style="whiteSpace=wrap;html=1;aspect=fixed;fillColor=none;fontFamily=Helvetica;" parent="1" vertex="1">
          <mxGeometry x="320" y="440" width="40" height="40" as="geometry" />
        </mxCell>
        <mxCell id="4VORlH8GiMeX1_bS_ced-87" value="&lt;b&gt;&lt;font style=&quot;font-size: 16px;&quot;&gt;B&lt;/font&gt;&lt;/b&gt;" style="whiteSpace=wrap;html=1;aspect=fixed;fillColor=none;fontFamily=Helvetica;" parent="1" vertex="1">
          <mxGeometry x="280" y="520" width="40" height="40" as="geometry" />
        </mxCell>
        <mxCell id="4VORlH8GiMeX1_bS_ced-89" value="&lt;b&gt;&lt;font style=&quot;font-size: 16px;&quot;&gt;A&lt;/font&gt;&lt;/b&gt;" style="whiteSpace=wrap;html=1;aspect=fixed;fillColor=none;fontFamily=Helvetica;" parent="1" vertex="1">
          <mxGeometry x="240" y="520" width="40" height="40" as="geometry" />
        </mxCell>
        <mxCell id="4VORlH8GiMeX1_bS_ced-93" value="&lt;b&gt;&lt;font style=&quot;font-size: 16px;&quot;&gt;C&lt;/font&gt;&lt;/b&gt;" style="whiteSpace=wrap;html=1;aspect=fixed;fillColor=none;fontFamily=Helvetica;" parent="1" vertex="1">
          <mxGeometry x="320" y="520" width="40" height="40" as="geometry" />
        </mxCell>
        <mxCell id="4VORlH8GiMeX1_bS_ced-95" value="&lt;b&gt;&lt;font style=&quot;font-size: 16px;&quot;&gt;D&lt;/font&gt;&lt;/b&gt;" style="whiteSpace=wrap;html=1;aspect=fixed;fillColor=none;fontFamily=Helvetica;" parent="1" vertex="1">
          <mxGeometry x="360" y="520" width="40" height="40" as="geometry" />
        </mxCell>
        <mxCell id="4VORlH8GiMeX1_bS_ced-97" value="&lt;b&gt;&lt;font style=&quot;font-size: 16px;&quot;&gt;B&lt;/font&gt;&lt;/b&gt;" style="whiteSpace=wrap;html=1;aspect=fixed;fillColor=none;fontFamily=Helvetica;" parent="1" vertex="1">
          <mxGeometry x="280" y="600" width="40" height="40" as="geometry" />
        </mxCell>
        <mxCell id="4VORlH8GiMeX1_bS_ced-98" value="&lt;b&gt;&lt;font style=&quot;font-size: 16px;&quot;&gt;A&lt;/font&gt;&lt;/b&gt;" style="whiteSpace=wrap;html=1;aspect=fixed;fillColor=none;fontFamily=Helvetica;" parent="1" vertex="1">
          <mxGeometry x="240" y="600" width="40" height="40" as="geometry" />
        </mxCell>
        <mxCell id="4VORlH8GiMeX1_bS_ced-102" value="&lt;b&gt;&lt;font style=&quot;font-size: 16px;&quot;&gt;C&lt;/font&gt;&lt;/b&gt;" style="whiteSpace=wrap;html=1;aspect=fixed;fillColor=none;fontFamily=Helvetica;" parent="1" vertex="1">
          <mxGeometry x="320" y="600" width="40" height="40" as="geometry" />
        </mxCell>
        <mxCell id="4VORlH8GiMeX1_bS_ced-104" value="&lt;b&gt;&lt;font style=&quot;font-size: 16px;&quot;&gt;D&lt;/font&gt;&lt;/b&gt;" style="whiteSpace=wrap;html=1;aspect=fixed;fillColor=none;fontFamily=Helvetica;" parent="1" vertex="1">
          <mxGeometry x="360" y="600" width="40" height="40" as="geometry" />
        </mxCell>
        <mxCell id="4VORlH8GiMeX1_bS_ced-106" value="&lt;b&gt;&lt;font style=&quot;font-size: 16px;&quot;&gt;E&lt;/font&gt;&lt;/b&gt;" style="whiteSpace=wrap;html=1;aspect=fixed;fillColor=none;fontFamily=Helvetica;" parent="1" vertex="1">
          <mxGeometry x="440" y="600" width="40" height="40" as="geometry" />
        </mxCell>
        <mxCell id="4VORlH8GiMeX1_bS_ced-107" value="" style="whiteSpace=wrap;html=1;aspect=fixed;fillColor=none;fontFamily=Helvetica;" parent="1" vertex="1">
          <mxGeometry x="480" y="600" width="40" height="40" as="geometry" />
        </mxCell>
        <mxCell id="4VORlH8GiMeX1_bS_ced-108" value="" style="whiteSpace=wrap;html=1;aspect=fixed;fillColor=none;fontFamily=Helvetica;" parent="1" vertex="1">
          <mxGeometry x="520" y="600" width="40" height="40" as="geometry" />
        </mxCell>
        <mxCell id="4VORlH8GiMeX1_bS_ced-109" value="" style="whiteSpace=wrap;html=1;aspect=fixed;fillColor=none;fontFamily=Helvetica;" parent="1" vertex="1">
          <mxGeometry x="560" y="600" width="40" height="40" as="geometry" />
        </mxCell>
        <mxCell id="4VORlH8GiMeX1_bS_ced-111" value="" style="whiteSpace=wrap;html=1;aspect=fixed;fillColor=none;fontFamily=Helvetica;" parent="1" vertex="1">
          <mxGeometry x="280" y="680" width="40" height="40" as="geometry" />
        </mxCell>
        <mxCell id="4VORlH8GiMeX1_bS_ced-112" value="&lt;b&gt;&lt;font style=&quot;font-size: 16px;&quot;&gt;A&lt;/font&gt;&lt;/b&gt;" style="whiteSpace=wrap;html=1;aspect=fixed;fillColor=none;fontFamily=Helvetica;" parent="1" vertex="1">
          <mxGeometry x="240" y="680" width="40" height="40" as="geometry" />
        </mxCell>
        <mxCell id="4VORlH8GiMeX1_bS_ced-116" value="&lt;b&gt;&lt;font style=&quot;font-size: 16px;&quot;&gt;C&lt;/font&gt;&lt;/b&gt;" style="whiteSpace=wrap;html=1;aspect=fixed;fillColor=none;fontFamily=Helvetica;" parent="1" vertex="1">
          <mxGeometry x="320" y="680" width="40" height="40" as="geometry" />
        </mxCell>
        <mxCell id="4VORlH8GiMeX1_bS_ced-118" value="&lt;b&gt;&lt;font style=&quot;font-size: 16px;&quot;&gt;D&lt;/font&gt;&lt;/b&gt;" style="whiteSpace=wrap;html=1;aspect=fixed;fillColor=none;fontFamily=Helvetica;" parent="1" vertex="1">
          <mxGeometry x="360" y="680" width="40" height="40" as="geometry" />
        </mxCell>
        <mxCell id="4VORlH8GiMeX1_bS_ced-120" value="&lt;b&gt;&lt;font style=&quot;font-size: 16px;&quot;&gt;E&lt;/font&gt;&lt;/b&gt;" style="whiteSpace=wrap;html=1;aspect=fixed;fillColor=none;fontFamily=Helvetica;" parent="1" vertex="1">
          <mxGeometry x="440" y="680" width="40" height="40" as="geometry" />
        </mxCell>
        <mxCell id="4VORlH8GiMeX1_bS_ced-122" value="" style="whiteSpace=wrap;html=1;aspect=fixed;fillColor=none;fontFamily=Helvetica;" parent="1" vertex="1">
          <mxGeometry x="520" y="680" width="40" height="40" as="geometry" />
        </mxCell>
        <mxCell id="4VORlH8GiMeX1_bS_ced-123" value="" style="whiteSpace=wrap;html=1;aspect=fixed;fillColor=none;fontFamily=Helvetica;" parent="1" vertex="1">
          <mxGeometry x="560" y="680" width="40" height="40" as="geometry" />
        </mxCell>
        <mxCell id="4VORlH8GiMeX1_bS_ced-125" value="" style="endArrow=blockThin;html=1;rounded=0;endFill=0;startArrow=oval;startFill=0;fontFamily=Helvetica;dashed=1;dashPattern=1 1;" parent="1" edge="1">
          <mxGeometry width="50" height="50" relative="1" as="geometry">
            <mxPoint x="300" y="780" as="sourcePoint" />
            <mxPoint x="500" y="780" as="targetPoint" />
            <Array as="points">
              <mxPoint x="300" y="740" />
              <mxPoint x="500" y="740" />
            </Array>
          </mxGeometry>
        </mxCell>
        <mxCell id="4VORlH8GiMeX1_bS_ced-127" value="&lt;b&gt;&lt;font style=&quot;font-size: 16px;&quot;&gt;A&lt;/font&gt;&lt;/b&gt;" style="whiteSpace=wrap;html=1;aspect=fixed;fillColor=none;fontFamily=Helvetica;" parent="1" vertex="1">
          <mxGeometry x="240" y="760" width="40" height="40" as="geometry" />
        </mxCell>
        <mxCell id="4VORlH8GiMeX1_bS_ced-132" value="&lt;b&gt;&lt;font style=&quot;font-size: 16px;&quot;&gt;D&lt;/font&gt;&lt;/b&gt;" style="whiteSpace=wrap;html=1;aspect=fixed;fillColor=none;fontFamily=Helvetica;" parent="1" vertex="1">
          <mxGeometry x="360" y="760" width="40" height="40" as="geometry" />
        </mxCell>
        <mxCell id="4VORlH8GiMeX1_bS_ced-134" value="&lt;b&gt;&lt;font style=&quot;font-size: 16px;&quot;&gt;E&lt;/font&gt;&lt;/b&gt;" style="whiteSpace=wrap;html=1;aspect=fixed;fillColor=none;fontFamily=Helvetica;" parent="1" vertex="1">
          <mxGeometry x="440" y="760" width="40" height="40" as="geometry" />
        </mxCell>
        <mxCell id="4VORlH8GiMeX1_bS_ced-136" value="" style="whiteSpace=wrap;html=1;aspect=fixed;fillColor=none;fontFamily=Helvetica;" parent="1" vertex="1">
          <mxGeometry x="520" y="760" width="40" height="40" as="geometry" />
        </mxCell>
        <mxCell id="4VORlH8GiMeX1_bS_ced-137" value="" style="whiteSpace=wrap;html=1;aspect=fixed;fillColor=none;fontFamily=Helvetica;" parent="1" vertex="1">
          <mxGeometry x="560" y="760" width="40" height="40" as="geometry" />
        </mxCell>
        <mxCell id="4VORlH8GiMeX1_bS_ced-139" value="" style="endArrow=oval;html=1;rounded=0;endFill=0;startArrow=oval;startFill=0;dashed=1;dashPattern=1 1;" parent="1" edge="1">
          <mxGeometry width="50" height="50" relative="1" as="geometry">
            <mxPoint x="340" y="780" as="sourcePoint" />
            <mxPoint x="300" y="780" as="targetPoint" />
            <Array as="points">
              <mxPoint x="320" y="780" />
            </Array>
          </mxGeometry>
        </mxCell>
        <mxCell id="4VORlH8GiMeX1_bS_ced-142" value="" style="whiteSpace=wrap;html=1;aspect=fixed;fillColor=none;fontFamily=Helvetica;" parent="1" vertex="1">
          <mxGeometry x="480" y="840" width="40" height="40" as="geometry" />
        </mxCell>
        <mxCell id="4VORlH8GiMeX1_bS_ced-143" value="" style="endArrow=blockThin;html=1;rounded=0;endFill=0;startArrow=oval;startFill=0;fontFamily=Helvetica;dashed=1;dashPattern=1 1;" parent="1" edge="1">
          <mxGeometry width="50" height="50" relative="1" as="geometry">
            <mxPoint x="300" y="860" as="sourcePoint" />
            <mxPoint x="500" y="860" as="targetPoint" />
            <Array as="points">
              <mxPoint x="300" y="820" />
              <mxPoint x="500" y="820" />
            </Array>
          </mxGeometry>
        </mxCell>
        <mxCell id="4VORlH8GiMeX1_bS_ced-144" value="" style="whiteSpace=wrap;html=1;aspect=fixed;fillColor=none;fontFamily=Helvetica;" parent="1" vertex="1">
          <mxGeometry x="280" y="840" width="40" height="40" as="geometry" />
        </mxCell>
        <mxCell id="4VORlH8GiMeX1_bS_ced-145" value="&lt;b&gt;&lt;font style=&quot;font-size: 16px;&quot;&gt;A&lt;/font&gt;&lt;/b&gt;" style="whiteSpace=wrap;html=1;aspect=fixed;fillColor=none;fontFamily=Helvetica;" parent="1" vertex="1">
          <mxGeometry x="240" y="840" width="40" height="40" as="geometry" />
        </mxCell>
        <mxCell id="4VORlH8GiMeX1_bS_ced-148" value="&lt;b&gt;&lt;font style=&quot;font-size: 16px;&quot;&gt;F&lt;/font&gt;&lt;/b&gt;" style="whiteSpace=wrap;html=1;aspect=fixed;fillColor=none;fontFamily=Helvetica;" parent="1" vertex="1">
          <mxGeometry x="320" y="840" width="40" height="40" as="geometry" />
        </mxCell>
        <mxCell id="4VORlH8GiMeX1_bS_ced-150" value="&lt;b&gt;&lt;font style=&quot;font-size: 16px;&quot;&gt;D&lt;/font&gt;&lt;/b&gt;" style="whiteSpace=wrap;html=1;aspect=fixed;fillColor=none;fontFamily=Helvetica;" parent="1" vertex="1">
          <mxGeometry x="360" y="840" width="40" height="40" as="geometry" />
        </mxCell>
        <mxCell id="4VORlH8GiMeX1_bS_ced-152" value="&lt;b&gt;&lt;font style=&quot;font-size: 16px;&quot;&gt;E&lt;/font&gt;&lt;/b&gt;" style="whiteSpace=wrap;html=1;aspect=fixed;fillColor=none;fontFamily=Helvetica;" parent="1" vertex="1">
          <mxGeometry x="440" y="840" width="40" height="40" as="geometry" />
        </mxCell>
        <mxCell id="4VORlH8GiMeX1_bS_ced-153" value="" style="whiteSpace=wrap;html=1;aspect=fixed;fillColor=none;fontFamily=Helvetica;" parent="1" vertex="1">
          <mxGeometry x="520" y="840" width="40" height="40" as="geometry" />
        </mxCell>
        <mxCell id="4VORlH8GiMeX1_bS_ced-154" value="" style="whiteSpace=wrap;html=1;aspect=fixed;fillColor=none;fontFamily=Helvetica;" parent="1" vertex="1">
          <mxGeometry x="560" y="840" width="40" height="40" as="geometry" />
        </mxCell>
        <mxCell id="uwyrsJ083CnDpt8Ck0ms-1" value="" style="whiteSpace=wrap;html=1;aspect=fixed;fillColor=none;fontFamily=Helvetica;dashed=1;dashPattern=1 1;" parent="1" vertex="1">
          <mxGeometry x="440" y="520" width="40" height="40" as="geometry" />
        </mxCell>
      </root>
    </mxGraphModel>
  </diagram>
</mxfile>
